<?xml version="1.0" standalone="no"?>
<!DOCTYPE svg PUBLIC "-//W3C//DTD SVG 20010904//EN"
 "http://www.w3.org/TR/2001/REC-SVG-20010904/DTD/svg10.dtd">
<svg version="1.0" xmlns="http://www.w3.org/2000/svg"
 width="488.000000pt" height="488.000000pt" viewBox="0 0 488.000000 488.000000"
 preserveAspectRatio="xMidYMid meet">
<metadata>
Created by potrace 1.11, written by Peter Selinger 2001-2013
</metadata>
<g transform="translate(0.000000,488.000000) scale(0.100000,-0.100000)"
fill="#000000" stroke="none">
<path d="M2300 4877 c-3 -3 -32 -7 -65 -11 -203 -21 -389 -91 -546 -207 -236
-174 -444 -457 -557 -759 -150 -403 -129 -642 103 -1185 26 -60 51 -114 55
-120 25 -34 63 -172 63 -229 0 -169 -108 -270 -456 -428 -188 -85 -298 -158
-412 -274 -171 -173 -296 -401 -333 -609 -11 -64 -7 -286 6 -326 7 -20 14 -45
16 -55 14 -69 96 -219 154 -280 77 -81 190 -143 268 -148 74 -5 114 10 159 59
38 42 54 77 84 190 10 39 8 239 -3 300 -15 84 -26 195 -26 268 0 180 58 307
205 452 74 73 75 73 39 -32 -18 -54 -36 -116 -40 -138 -3 -22 -8 -43 -9 -46
-2 -3 -7 -28 -11 -55 -3 -27 -8 -51 -9 -54 -15 -24 -22 -300 -10 -389 35 -276
204 -559 385 -649 77 -38 182 -37 258 2 139 71 234 231 228 383 -4 82 -5 85
-49 193 -19 47 -51 124 -70 171 -93 225 -108 426 -46 618 40 125 199 374 250
393 11 4 41 10 67 13 26 3 57 8 69 11 31 6 73 -36 111 -111 59 -118 58 -200
-2 -445 -2 -8 -21 -76 -41 -150 -61 -224 -123 -472 -129 -520 -4 -25 -9 -57
-12 -72 -3 -14 -5 -64 -5 -110 -1 -193 125 -424 269 -495 53 -26 65 -28 182
-28 114 0 130 2 180 26 107 51 186 158 241 328 24 74 27 98 23 181 -5 148 -11
177 -130 627 -85 321 -102 406 -97 489 6 96 46 196 106 262 17 19 27 21 66 16
69 -8 82 -14 110 -47 106 -125 207 -311 236 -435 45 -189 18 -363 -96 -629
-70 -164 -89 -227 -89 -298 0 -151 101 -310 238 -376 71 -34 179 -33 253 4 98
47 210 180 293 347 68 138 95 264 94 450 0 112 -3 153 -24 294 -10 68 -53 225
-84 305 -33 84 -36 97 -17 81 6 -5 32 -27 57 -47 160 -132 246 -263 275 -418
6 -32 7 -163 1 -205 -2 -14 -7 -54 -11 -90 -4 -36 -9 -74 -12 -85 -11 -53 -14
-207 -5 -265 22 -140 83 -245 156 -267 139 -43 336 72 443 258 29 50 78 177
88 229 14 72 14 255 0 325 -68 346 -334 683 -661 836 -246 115 -296 140 -345
172 -138 89 -201 192 -192 312 5 68 14 95 98 285 179 408 242 672 213 890 -69
506 -452 1053 -856 1221 -77 32 -222 72 -302 83 -55 8 -384 19 -390 13z"/>
</g>
</svg>
