<?xml version="1.0" standalone="no"?>
<!DOCTYPE svg PUBLIC "-//W3C//DTD SVG 20010904//EN"
 "http://www.w3.org/TR/2001/REC-SVG-20010904/DTD/svg10.dtd">
<svg version="1.0" xmlns="http://www.w3.org/2000/svg"
 width="512.000000pt" height="512.000000pt" viewBox="0 0 512.000000 512.000000"
 preserveAspectRatio="xMidYMid meet">
<metadata>
Created by potrace 1.11, written by Peter Selinger 2001-2013
</metadata>
<g transform="translate(0.000000,512.000000) scale(0.100000,-0.100000)"
fill="#000000" stroke="none">
<path d="M2410 5074 c-367 -32 -651 -109 -955 -258 -513 -253 -899 -638 -1151
-1151 -180 -366 -258 -700 -258 -1110 0 -410 78 -744 258 -1110 252 -513 638
-899 1151 -1151 366 -180 700 -258 1110 -258 410 0 744 78 1110 258 513 252
899 638 1151 1151 180 366 258 700 258 1110 0 410 -78 744 -258 1110 -252 513
-639 900 -1151 1151 -257 126 -476 194 -749 235 -125 18 -420 31 -516 23z
m-529 -199 c35 -33 68 -98 69 -132 0 -26 -3 -27 -28 -13 -9 5 -44 16 -77 25
-61 17 -104 52 -135 109 -20 38 -2 48 77 43 53 -2 67 -7 94 -32z m743 -103 c6
-10 -52 -67 -101 -101 l-32 -22 73 -70 c64 -60 107 -121 95 -134 -2 -2 -16 -5
-31 -7 -22 -2 -35 7 -75 57 -27 32 -67 72 -90 88 -40 29 -42 29 -84 15 l-44
-15 -1 -79 0 -79 -36 -3 -36 -3 -6 68 c-3 37 -7 113 -8 168 l-3 100 35 0 35 0
3 -57 c2 -32 8 -58 14 -58 22 0 135 61 174 94 22 19 53 36 70 39 16 2 32 5 36
6 4 0 9 -3 12 -7z m520 -85 c49 -49 127 -321 100 -347 -5 -5 -21 -6 -37 -3
-23 4 -28 12 -33 45 -4 21 -14 43 -23 47 -9 5 -55 17 -103 26 -49 10 -88 21
-88 25 0 4 8 14 18 23 15 14 24 13 96 -4 43 -11 80 -18 82 -16 6 6 -43 148
-55 160 -13 13 -120 -96 -166 -172 -32 -51 -42 -61 -59 -57 -12 3 -27 6 -33 6
-20 0 -15 17 22 75 67 105 185 215 231 215 14 0 35 -10 48 -23z m-1140 -4 c2
-10 19 -83 36 -162 32 -153 32 -161 -17 -161 -17 0 -24 8 -32 38 -13 49 -61
268 -61 276 0 7 38 24 57 25 6 1 14 -7 17 -16z m-306 -114 c2 -10 -15 -23 -48
-39 -59 -28 -60 -17 17 -172 51 -105 53 -113 37 -125 -38 -28 -49 -16 -109
112 -32 69 -62 125 -67 125 -5 0 -27 -9 -49 -21 -42 -21 -69 -20 -69 4 0 15
246 137 270 134 8 -1 16 -9 18 -18z m1873 -29 c10 -6 19 -14 19 -19 0 -5 -32
-63 -71 -131 -56 -96 -68 -124 -58 -131 8 -5 42 -25 77 -45 59 -33 75 -55 52
-69 -6 -4 -39 11 -73 33 -34 21 -81 49 -104 61 -24 12 -43 26 -43 31 0 8 90
166 147 258 15 25 25 27 54 12z m599 -395 l104 -105 -34 -35 -34 -35 -63 62
c-62 61 -63 62 -83 43 l-21 -19 58 -58 58 -58 -37 -37 -36 -36 -55 59 -55 59
-39 -37 c-21 -21 -43 -38 -48 -38 -11 0 -85 71 -85 81 0 8 252 258 260 259 3
0 52 -47 110 -105z m-3107 -73 c42 -109 55 -133 92 -167 l44 -40 -38 -44 -38
-45 -46 38 c-40 33 -64 42 -174 68 -71 17 -131 33 -135 37 -4 3 9 24 29 45
l36 39 56 -11 c31 -7 67 -15 80 -19 21 -5 23 -4 17 13 -5 10 -17 44 -29 75
l-20 57 34 41 c19 22 36 41 39 41 3 0 27 -57 53 -128z m1508 -149 l-1 -203 47
0 c69 -1 191 -25 246 -49 72 -31 247 -174 247 -201 0 -6 14 -31 30 -55 60 -87
107 -214 124 -335 4 -25 18 -62 31 -82 14 -21 25 -41 25 -45 0 -5 -10 7 -21
25 -12 17 -24 32 -29 32 -4 0 -10 -25 -14 -54 -3 -30 -17 -86 -31 -124 -14
-39 -22 -77 -19 -86 4 -10 1 -16 -7 -16 -13 0 -71 -126 -83 -181 -3 -14 -1
-41 4 -59 11 -37 56 -90 77 -90 7 0 13 -4 13 -10 0 -13 148 -82 160 -75 6 4
10 2 10 -4 0 -6 13 -17 30 -26 16 -8 55 -36 85 -61 31 -24 61 -42 67 -38 7 4
8 3 4 -5 -4 -6 12 -43 39 -84 25 -39 54 -98 63 -129 9 -32 23 -58 30 -58 9 0
10 -5 2 -19 -5 -11 -10 -45 -10 -75 0 -60 -27 -143 -63 -198 -49 -73 -153
-117 -207 -88 -16 9 -30 2 -77 -34 -32 -24 -85 -58 -118 -76 -66 -34 -63 -32
69 55 98 66 97 63 76 145 -7 29 -9 77 -5 133 4 48 4 87 1 87 -2 0 -27 -22 -54
-48 -34 -33 -54 -64 -66 -99 -22 -66 -85 -164 -122 -190 -60 -41 -90 -47 -138
-29 -23 9 -53 28 -66 41 -17 18 -30 23 -44 19 -20 -6 -20 -6 -2 8 14 11 16 19
9 34 -20 38 -22 83 -7 134 8 28 12 54 10 59 -3 5 0 11 8 14 19 8 52 100 61
170 8 64 1 70 -43 38 -36 -25 -81 -47 -112 -55 -14 -3 -5 3 20 15 25 11 67 34
93 51 48 31 48 31 41 72 -8 52 -49 146 -63 146 -6 0 -30 -15 -54 -32 -23 -18
-61 -42 -85 -52 -30 -14 -42 -25 -42 -40 0 -33 39 -161 50 -164 6 -2 8 -8 4
-13 -5 -9 21 -144 32 -161 10 -17 12 -129 2 -165 -5 -21 -10 -47 -11 -58 -3
-35 -88 -115 -133 -125 -151 -34 -259 70 -264 253 -1 34 0 69 3 77 14 35 37
152 31 161 -3 5 -1 9 4 9 12 0 56 165 49 184 -3 8 -1 16 5 18 15 5 22 91 9
129 -6 19 -21 47 -34 63 l-24 29 -84 -13 c-179 -27 -350 -104 -444 -200 l-39
-40 24 -32 23 -33 -25 23 c-13 12 -27 22 -30 22 -15 0 -48 -104 -48 -152 0
-97 8 -120 56 -158 24 -19 41 -36 39 -38 -2 -3 -19 8 -37 23 l-33 28 -6 -80
c-6 -75 -30 -143 -51 -143 -4 0 -8 -7 -8 -15 0 -9 33 -37 74 -63 104 -66 116
-75 76 -56 -19 9 -66 38 -105 65 -38 26 -89 52 -112 57 -78 18 -143 85 -176
186 -9 27 -25 58 -34 69 -17 19 -17 20 0 14 15 -6 17 0 17 46 0 64 23 147 57
205 13 24 22 50 19 59 -4 9 -1 13 6 11 7 -3 29 17 50 44 21 26 56 60 78 74 22
15 40 31 40 35 0 5 3 8 8 7 4 -2 27 7 52 19 25 12 57 27 73 32 15 6 27 16 27
22 0 6 6 9 14 6 15 -6 100 56 128 94 35 46 27 103 -30 237 -29 66 -52 127 -52
136 0 27 -28 6 -41 -31 -6 -19 -13 -32 -16 -30 -2 3 5 27 16 53 19 43 20 53
10 103 -7 31 -12 89 -13 129 0 39 -3 72 -6 72 -3 0 -20 -17 -39 -37 -40 -46
-29 -26 22 39 23 29 41 65 48 97 10 48 9 53 -23 110 -41 72 -38 72 -157 -43
-64 -61 -76 -70 -50 -36 19 24 63 75 98 112 35 38 58 68 52 68 -6 0 -11 4 -11
9 0 6 -22 44 -48 85 l-48 75 -32 -19 c-18 -11 -72 -57 -120 -102 -104 -99 -83
-69 43 60 78 81 88 95 74 105 -9 7 -18 17 -20 22 -7 17 -84 124 -89 125 -3 0
-42 -29 -87 -65 -98 -78 -190 -180 -268 -295 -67 -99 -77 -111 -45 -53 80 145
300 375 462 483 180 120 388 204 593 240 122 21 178 27 243 26 l44 -1 -1 -202z
m132 190 c-7 -2 -21 -2 -30 0 -10 3 -4 5 12 5 17 0 24 -2 18 -5z m84 -9 c-3
-3 -12 -4 -19 -1 -8 3 -5 6 6 6 11 1 17 -2 13 -5z m160 -30 c-3 -3 -12 -4 -19
-1 -8 3 -5 6 6 6 11 1 17 -2 13 -5z m53 -14 c18 -12 2 -12 -25 0 -13 6 -15 9
-5 9 8 0 22 -4 30 -9z m120 -40 c18 -12 2 -12 -25 0 -13 6 -15 9 -5 9 8 0 22
-4 30 -9z m60 -25 c14 -8 21 -14 15 -14 -5 0 -21 6 -35 14 -14 8 -20 14 -15
14 6 0 21 -6 35 -14z m135 -66 c219 -121 445 -333 561 -524 28 -46 3 -17 -50
58 -26 37 -86 108 -134 158 -135 142 -245 227 -415 319 -40 22 -68 40 -63 40
6 0 51 -23 101 -51z m1080 -40 c15 -22 29 -47 31 -54 4 -8 -30 -35 -95 -75
-104 -64 -128 -93 -101 -125 21 -26 52 -17 153 45 53 33 99 60 101 60 2 0 19
-23 36 -52 37 -60 46 -48 -93 -134 -48 -30 -101 -57 -117 -61 -74 -14 -156 33
-191 112 -33 72 -21 142 33 192 26 24 198 133 210 133 4 0 19 -18 33 -41z
m-1778 -5 c-3 -3 -12 -4 -19 -1 -8 3 -5 6 6 6 11 1 17 -2 13 -5z m86 -11 c-13
-2 -35 -2 -50 0 -16 2 -5 4 22 4 28 0 40 -2 28 -4z m92 -13 c3 -6 -1 -7 -9 -4
-18 7 -21 14 -7 14 6 0 13 -4 16 -10z m280 -80 c3 -6 -1 -7 -9 -4 -18 7 -21
14 -7 14 6 0 13 -4 16 -10z m45 -20 c8 -5 11 -10 5 -10 -5 0 -17 5 -25 10 -8
5 -10 10 -5 10 6 0 17 -5 25 -10z m91 -46 c220 -124 415 -328 528 -551 46 -92
37 -91 -12 2 -53 99 -68 123 -136 210 -100 126 -224 236 -356 313 -90 53 -101
61 -93 61 3 1 35 -15 69 -35z m-2353 -13 c84 -10 156 -21 159 -25 4 -3 -5 -27
-20 -54 -22 -40 -30 -47 -57 -47 -27 0 -34 -7 -60 -54 -35 -63 -35 -68 -14
-92 14 -16 14 -20 0 -43 -9 -14 -23 -37 -32 -51 l-15 -26 -119 153 c-66 84
-120 158 -120 163 0 6 14 32 30 58 28 44 33 47 63 42 17 -3 101 -14 185 -24z
m3778 -238 c32 -78 31 -79 -95 -128 -62 -24 -116 -46 -118 -49 -3 -3 6 -34 20
-70 18 -48 22 -68 13 -74 -15 -13 -85 -37 -89 -31 -16 19 -97 253 -91 259 9 8
322 129 336 130 4 0 15 -17 24 -37z m-1410 -54 c103 -81 221 -218 273 -316 23
-45 2 -22 -36 40 -59 94 -150 195 -241 266 -45 36 -82 66 -82 68 0 7 23 -9 86
-58z m-1696 -33 c0 -2 -8 -10 -17 -17 -16 -13 -17 -12 -4 4 13 16 21 21 21 13z
m2385 -36 c9 -16 13 -30 11 -30 -3 0 -12 14 -21 30 -9 17 -13 30 -11 30 3 0
12 -13 21 -30z m-3249 -25 c73 -36 98 -85 91 -174 -8 -88 -43 -201 -64 -201
-15 0 -324 90 -332 97 -10 8 55 198 79 232 53 73 138 90 226 46z m507 -60
c-20 -41 -39 -73 -41 -71 -4 5 66 146 73 146 3 0 -12 -34 -32 -75z m275 8
c-12 -21 -37 -65 -55 -98 -33 -61 -46 -71 -17 -12 26 51 85 147 91 147 2 0 -6
-17 -19 -37z m2512 -4 c12 -23 20 -43 18 -45 -3 -2 -14 17 -26 41 -27 56 -20
60 8 4z m-2276 -84 c-9 -14 -18 -25 -21 -25 -5 0 5 18 20 38 17 22 18 13 1
-13z m2325 -30 c0 -5 -6 1 -14 15 -8 14 -14 30 -14 35 0 6 6 -1 14 -15 8 -14
14 -29 14 -35z m-2893 -16 c-9 -19 -15 -29 -16 -22 0 15 22 64 27 60 2 -2 -3
-19 -11 -38z m514 -39 c-11 -22 -23 -40 -25 -40 -3 0 4 18 15 40 11 22 23 40
25 40 3 0 -4 -18 -15 -40z m2400 5 c0 -5 -5 -3 -10 5 -5 8 -10 20 -10 25 0 6
5 3 10 -5 5 -8 10 -19 10 -25z m736 -35 c7 -30 9 -58 5 -63 -4 -4 -61 -18
-127 -30 l-119 -23 1 -29 c0 -17 4 -51 8 -77 9 -52 7 -54 -69 -60 l-30 -3 -26
130 c-15 75 -22 134 -17 140 9 10 321 74 347 71 9 0 19 -23 27 -56z m-3425 -7
c-12 -20 -14 -14 -5 12 4 9 9 14 11 11 3 -2 0 -13 -6 -23z m-261 -20 c-11 -17
-11 -17 -6 0 3 10 6 24 7 30 0 9 2 9 5 0 3 -7 0 -20 -6 -30z m2479 -68 c0 -5
-11 10 -24 35 -13 25 -24 50 -24 55 0 6 11 -10 24 -35 13 -25 24 -49 24 -55z
m488 63 c-3 -8 -6 -5 -6 6 -1 11 2 17 5 13 3 -3 4 -12 1 -19z m-2466 -35 c-11
-21 -20 -35 -21 -31 0 12 33 78 38 74 2 -2 -6 -21 -17 -43z m252 2 c-13 -25
-27 -45 -29 -45 -5 0 24 60 38 78 20 24 16 12 -9 -33z m1977 0 c0 -5 -5 -3
-10 5 -5 8 -10 20 -10 25 0 6 5 3 10 -5 5 -8 10 -19 10 -25z m-2743 -7 c-3 -8
-6 -5 -6 6 -1 11 2 17 5 13 3 -3 4 -12 1 -19z m3002 -18 c0 -10 -3 -8 -9 5
-12 27 -12 43 0 25 5 -8 9 -22 9 -30z m-2778 -61 c-5 -13 -10 -19 -10 -12 -1
15 10 45 15 40 3 -2 0 -15 -5 -28z m2798 -14 c0 -5 -4 -3 -9 5 -5 8 -9 22 -9
30 0 16 17 -16 18 -35z m-725 -45 c3 -14 -3 -7 -13 15 -11 22 -20 45 -20 50 0
15 26 -37 33 -65z m-1591 20 c-3 -12 -8 -19 -11 -16 -5 6 5 36 12 36 2 0 2 -9
-1 -20z m2074 -22 c-3 -8 -6 -5 -6 6 -1 11 2 17 5 13 3 -3 4 -12 1 -19z
m-2320 -10 c-3 -8 -6 -5 -6 6 -1 11 2 17 5 13 3 -3 4 -12 1 -19z m2083 -32 c0
-26 -6 -18 -14 19 -5 22 -4 26 4 15 5 -8 10 -24 10 -34z m-1859 7 c-12 -20
-14 -14 -5 12 4 9 9 14 11 11 3 -2 0 -13 -6 -23z m-484 -15 c-3 -8 -6 -5 -6 6
-1 11 2 17 5 13 3 -3 4 -12 1 -19z m-246 -29 c-5 -13 -10 -19 -10 -12 -1 15
10 45 15 40 3 -2 0 -15 -5 -28z m236 -26 c-3 -10 -5 -4 -5 12 0 17 2 24 5 18
2 -7 2 -21 0 -30z m250 15 c-3 -8 -6 -5 -6 6 -1 11 2 17 5 13 3 -3 4 -12 1
-19z m2115 -7 c2 -17 1 -28 -4 -25 -8 5 -12 54 -4 54 2 0 6 -13 8 -29z m245
-3 c-3 -7 -5 -2 -5 12 0 14 2 19 5 13 2 -7 2 -19 0 -25z m240 10 c-3 -8 -6 -5
-6 6 -1 11 2 17 5 13 3 -3 4 -12 1 -19z m-3429 -100 l-3 -73 -42 -19 c-32 -15
-43 -25 -43 -42 0 -20 6 -23 48 -26 l47 -3 3 -54 c2 -37 -1 -57 -10 -62 -7 -5
-93 -9 -190 -9 l-178 0 0 129 c0 117 2 131 23 162 41 61 138 73 202 25 l30
-23 50 33 c28 18 54 33 58 33 4 1 7 -32 5 -71z m1049 50 c-3 -8 -6 -5 -6 6 -1
11 2 17 5 13 3 -3 4 -12 1 -19z m2825 5 c21 -9 38 -19 38 -22 0 -3 -11 -28
-25 -55 -27 -53 -34 -121 -13 -114 7 3 19 22 26 44 37 109 69 144 130 144 103
0 156 -157 96 -282 -20 -44 -30 -46 -84 -18 l-40 20 19 38 c24 47 35 98 23
106 -14 8 -26 -12 -45 -76 -22 -72 -62 -108 -118 -108 -44 0 -84 21 -101 54
-32 59 -26 171 13 248 22 43 28 45 81 21z m-2645 -25 c-3 -8 -6 -5 -6 6 -1 11
2 17 5 13 3 -3 4 -12 1 -19z m1972 -201 c-4 -50 -6 -27 -6 78 0 112 2 130 6
72 3 -43 3 -111 0 -150z m-662 191 c-3 -8 -6 -5 -6 6 -1 11 2 17 5 13 3 -3 4
-12 1 -19z m900 -10 c-3 -7 -5 -2 -5 12 0 14 2 19 5 13 2 -7 2 -19 0 -25z
m-2869 -105 c-1 -96 -3 -113 -7 -68 -6 61 -3 195 5 195 2 0 3 -57 2 -127z
m244 -10 c2 -51 0 -87 -3 -80 -8 14 -11 60 -10 131 2 80 10 48 13 -51z m-483
-31 c-5 -28 -7 -16 -7 43 0 66 2 72 8 37 3 -24 3 -60 -1 -80z m2631 46 c0 -21
-3 -29 -10 -22 -5 5 -7 19 -4 32 9 31 14 27 14 -10z m-220 -5 c0 -19 -3 -24
-10 -17 -6 6 -8 18 -4 27 9 24 14 21 14 -10z m-188 -15 c-9 -9 -12 -7 -12 12
0 19 3 21 12 12 9 -9 9 -15 0 -24z m-1512 13 c0 -6 -4 -13 -10 -16 -5 -3 -10
1 -10 9 0 9 5 16 10 16 6 0 10 -4 10 -9z m180 -1 c0 -5 -5 -10 -11 -10 -5 0
-7 5 -4 10 3 6 8 10 11 10 2 0 4 -4 4 -10z m1317 -132 c-3 -7 -5 -2 -5 12 0
14 2 19 5 13 2 -7 2 -19 0 -25z m900 0 c-3 -7 -5 -2 -5 12 0 14 2 19 5 13 2
-7 2 -19 0 -25z m-2210 0 c-3 -8 -6 -5 -6 6 -1 11 2 17 5 13 3 -3 4 -12 1 -19z
m-180 -30 c-3 -8 -6 -5 -6 6 -1 11 2 17 5 13 3 -3 4 -12 1 -19z m1895 -25 c-3
-16 -7 -22 -10 -15 -4 13 4 42 11 42 2 0 2 -12 -1 -27z m-2365 -20 c-3 -10 -5
-4 -5 12 0 17 2 24 5 18 2 -7 2 -21 0 -30z m250 5 c-3 -8 -6 -5 -6 6 -1 11 2
17 5 13 3 -3 4 -12 1 -19z m2360 -10 c-3 -7 -5 -2 -5 12 0 14 2 19 5 13 2 -7
2 -19 0 -25z m240 0 c-3 -7 -5 -2 -5 12 0 14 2 19 5 13 2 -7 2 -19 0 -25z
m-3078 -23 c0 -5 -4 -3 -9 5 -5 8 -9 22 -9 30 0 16 17 -16 18 -35z m724 -15
c3 -11 1 -18 -4 -14 -5 3 -9 12 -9 20 0 20 7 17 13 -6z m1854 -2 c-3 -8 -6 -5
-6 6 -1 11 2 17 5 13 3 -3 4 -12 1 -19z m-2904 -48 c15 -60 15 -60 -9 -79
l-23 -18 17 -64 c13 -48 22 -65 37 -67 11 -2 24 -7 28 -11 13 -12 36 -110 27
-116 -4 -2 -94 9 -200 27 -185 30 -192 32 -202 57 -5 14 -11 45 -11 68 l-2 42
150 110 c83 60 155 110 161 110 6 1 18 -26 27 -59z m4098 22 c4 -4 -7 -79 -25
-167 l-31 -160 -35 3 c-61 7 -69 16 -59 63 6 23 6 45 2 49 -4 4 -62 18 -128
30 -66 13 -123 27 -126 32 -10 16 17 113 32 116 8 1 67 -8 132 -21 64 -14 119
-21 122 -17 2 4 7 26 11 50 l7 42 46 -6 c25 -3 48 -10 52 -14z m-954 -24 c-3
-8 -6 -5 -6 6 -1 11 2 17 5 13 3 -3 4 -12 1 -19z m-260 -20 c-3 -8 -6 -5 -6 6
-1 11 2 17 5 13 3 -3 4 -12 1 -19z m-2288 -48 c0 -9 -4 -8 -9 5 -5 11 -9 27
-9 35 0 9 4 8 9 -5 5 -11 9 -27 9 -35z m2785 16 c-3 -15 -8 -25 -11 -23 -2 3
-1 17 3 31 3 15 8 25 11 23 2 -3 1 -17 -3 -31z m-3037 -8 c-3 -8 -6 -5 -6 6
-1 11 2 17 5 13 3 -3 4 -12 1 -19z m517 -28 c5 -17 4 -20 -2 -10 -5 8 -13 26
-16 40 -5 17 -4 20 2 10 5 -8 13 -26 16 -40z m841 -48 c-4 -5 -96 43 -120 62
-11 9 12 -1 52 -21 39 -21 70 -39 68 -41z m1419 44 c-3 -15 -8 -25 -11 -23 -2
3 -1 17 3 31 3 15 8 25 11 23 2 -3 1 -17 -3 -31z m-2517 -18 c-3 -8 -6 -5 -6
6 -1 11 2 17 5 13 3 -3 4 -12 1 -19z m21 -49 c-3 -8 -7 -3 -11 10 -4 17 -3 21
5 13 5 -5 8 -16 6 -23z m2473 4 c-12 -20 -14 -14 -5 12 4 9 9 14 11 11 3 -2 0
-13 -6 -23z m-2711 -38 c0 -5 -5 -3 -10 5 -5 8 -10 20 -10 25 0 6 5 3 10 -5 5
-8 10 -19 10 -25z m2957 13 c-3 -8 -6 -5 -6 6 -1 11 2 17 5 13 3 -3 4 -12 1
-19z m-2697 -33 c0 -5 -5 -3 -10 5 -5 8 -10 20 -10 25 0 6 5 3 10 -5 5 -8 10
-19 10 -25z m2431 8 c-12 -20 -14 -14 -5 12 4 9 9 14 11 11 3 -2 0 -13 -6 -23z
m-2401 -67 c0 -12 -5 -7 -19 24 -11 24 -11 24 3 6 9 -11 16 -24 16 -30z m2382
22 c-7 -7 -12 -8 -12 -2 0 14 12 26 19 19 2 -3 -1 -11 -7 -17z m259 -5 c-12
-20 -14 -14 -5 12 4 9 9 14 11 11 3 -2 0 -13 -6 -23z m512 -117 l137 -145 -28
-58 -28 -58 -194 3 c-107 2 -198 7 -201 10 -4 4 4 33 18 64 22 49 29 57 56 60
26 3 33 10 55 61 23 53 24 59 8 75 -9 10 -16 23 -16 29 0 18 40 103 49 103 4
0 69 -65 144 -144z m-3264 -187 c147 -217 345 -393 586 -521 50 -26 86 -48 81
-48 -5 0 -54 24 -108 53 -201 105 -400 280 -539 473 -57 80 -179 304 -179 329
0 5 26 -42 58 -106 32 -63 77 -144 101 -180z m985 276 c11 -8 16 -15 10 -15
-5 0 -18 7 -28 15 -11 8 -16 15 -10 15 5 0 18 -7 28 -15z m1481 -25 c-9 -18
-19 -30 -21 -27 -3 2 3 18 13 35 23 40 29 33 8 -8z m249 -33 c-27 -60 -44 -80
-20 -24 26 61 39 87 43 84 2 -2 -8 -29 -23 -60z m-2570 6 c14 -27 35 -64 47
-83 11 -19 13 -26 4 -15 -17 21 -85 133 -85 141 0 14 13 -2 34 -43z m916 17
c8 -5 11 -10 5 -10 -5 0 -17 5 -25 10 -8 5 -10 10 -5 10 6 0 17 -5 25 -10z
m65 -20 c13 -5 14 -9 5 -9 -8 0 -24 4 -35 9 -13 5 -14 9 -5 9 8 0 24 -4 35 -9z
m1534 -114 c-29 -49 -34 -46 -9 5 12 23 24 39 26 36 3 -2 -5 -21 -17 -41z
m-3129 -6 c21 -11 47 -32 58 -47 19 -28 102 -188 102 -198 0 -6 -316 -165
-328 -165 -10 0 -98 183 -106 223 -15 64 42 164 109 193 45 20 120 17 165 -6z
m2067 -36 c-3 -3 -12 -4 -19 -1 -8 3 -5 6 6 6 11 1 17 -2 13 -5z m-536 -22
c-7 -2 -18 1 -23 6 -8 8 -4 9 13 5 13 -4 18 -8 10 -11z m1563 6 c-73 -125
-208 -282 -321 -377 -77 -64 -172 -130 -213 -150 -21 -10 -22 -9 -6 1 237 161
382 300 501 481 21 31 40 57 42 57 2 0 1 -6 -3 -12z m421 -217 c165 -75 159
-293 -10 -372 -56 -26 -63 -24 -74 19 -18 63 -15 82 14 82 28 0 75 40 75 64 0
44 -53 96 -98 96 -34 0 -62 -32 -70 -80 -7 -44 -8 -45 -52 -51 -25 -4 -48 -5
-52 -2 -19 11 -7 102 20 154 22 43 38 59 81 81 62 33 109 35 166 9z m-1978
-17 c-3 -3 -12 -4 -19 -1 -8 3 -5 6 6 6 11 1 17 -2 13 -5z m56 -11 c-7 -2 -19
-2 -25 0 -7 3 -2 5 12 5 14 0 19 -2 13 -5z m-1357 -48 c33 -41 36 -48 25 -71
-10 -23 -7 -30 30 -75 37 -44 45 -49 73 -44 27 5 35 0 70 -40 21 -26 36 -48
34 -51 -3 -2 -83 -29 -179 -58 -96 -30 -181 -57 -190 -61 -10 -4 -29 11 -58
45 l-43 51 42 82 c93 179 142 267 150 267 5 0 25 -20 46 -45z m949 -83 c-3 -3
-11 0 -18 7 -9 10 -8 11 6 5 10 -3 15 -9 12 -12z m1170 8 c-3 -5 -12 -10 -18
-10 -7 0 -6 4 3 10 19 12 23 12 15 0z m-1125 -20 c8 -5 11 -10 5 -10 -5 0 -17
5 -25 10 -8 5 -10 10 -5 10 6 0 17 -5 25 -10z m1080 0 c-8 -5 -19 -10 -25 -10
-5 0 -3 5 5 10 8 5 20 10 25 10 6 0 3 -5 -5 -10z m-973 -46 c-5 -5 -69 16 -82
27 -5 5 12 2 38 -7 27 -9 46 -18 44 -20z m928 26 c-3 -5 -12 -10 -18 -10 -7 0
-6 4 3 10 19 12 23 12 15 0z m-50 -20 c-27 -12 -43 -12 -25 0 8 5 22 9 30 9
10 0 8 -3 -5 -9z m-838 -16 c-3 -3 -12 -4 -19 -1 -8 3 -5 6 6 6 11 1 17 -2 13
-5z m790 0 c-3 -3 -12 -4 -19 -1 -8 3 -5 6 6 6 11 1 17 -2 13 -5z m-720 -20
c-3 -3 -12 -4 -19 -1 -8 3 -5 6 6 6 11 1 17 -2 13 -5z m40 -10 c-3 -3 -12 -4
-19 -1 -8 3 -5 6 6 6 11 1 17 -2 13 -5z m570 0 c-3 -3 -12 -4 -19 -1 -8 3 -5
6 6 6 11 1 17 -2 13 -5z m1226 -128 c64 -74 117 -139 117 -143 0 -5 -20 -26
-45 -47 l-46 -38 -39 44 -39 43 -1 -81 0 -81 -49 -41 c-27 -23 -52 -42 -55
-42 -3 0 -7 43 -8 96 l-3 97 -50 14 c-150 43 -185 55 -185 63 0 10 70 78 95
92 7 4 39 -1 70 -12 32 -11 62 -20 67 -20 18 0 7 48 -17 70 -14 13 -25 28 -25
34 0 14 71 86 85 86 6 0 63 -60 128 -134z m-1718 114 c13 -6 15 -9 5 -9 -8 0
-22 4 -30 9 -18 12 -2 12 25 0z m442 4 c-3 -3 -12 -4 -19 -1 -8 3 -5 6 6 6 11
1 17 -2 13 -5z m-187 -24 c-30 -3 -82 -3 -115 0 l-60 4 60 6 c33 3 85 3 115 0
l55 -4 -55 -6z m710 -35 c0 -2 -13 -11 -30 -20 -38 -19 -40 -11 -2 9 31 17 32
18 32 11z m-110 -60 c-25 -13 -49 -24 -55 -24 -5 0 10 11 35 24 25 13 50 24
55 24 6 0 -10 -11 -35 -24z m-1810 -78 c0 -5 -5 -27 -11 -48 -10 -31 -9 -42 2
-55 12 -15 16 -13 45 21 l32 38 46 -33 c25 -18 46 -39 46 -47 0 -10 -169 -240
-211 -287 -9 -11 -176 112 -203 150 -25 36 -32 94 -13 130 22 43 61 75 99 83
31 6 33 10 41 61 11 86 11 85 72 39 30 -23 55 -46 55 -52z m570 53 c8 -5 11
-10 5 -10 -5 0 -17 5 -25 10 -8 5 -10 10 -5 10 6 0 17 -5 25 -10z m1160 -10
c-8 -5 -19 -10 -25 -10 -5 0 -3 5 5 10 8 5 20 10 25 10 6 0 3 -5 -5 -10z
m-1110 -10 c8 -5 11 -10 5 -10 -5 0 -17 5 -25 10 -8 5 -10 10 -5 10 6 0 17 -5
25 -10z m1025 -20 c-3 -5 -14 -10 -23 -9 -14 0 -13 2 3 9 27 11 27 11 20 0z
m-60 -20 c-11 -5 -27 -9 -35 -9 -9 0 -8 4 5 9 11 5 27 9 35 9 9 0 8 -4 -5 -9z
m-778 -16 c-3 -3 -12 -4 -19 -1 -8 3 -5 6 6 6 11 1 17 -2 13 -5z m156 -31 c-7
-2 -19 -2 -25 0 -7 3 -2 5 12 5 14 0 19 -2 13 -5z m202 -3 c3 -5 -1 -10 -10
-10 -9 0 -13 5 -10 10 3 6 8 10 10 10 2 0 7 -4 10 -10z m202 4 c-3 -3 -12 -4
-19 -1 -8 3 -5 6 6 6 11 1 17 -2 13 -5z m-110 -10 c-3 -3 -12 -4 -19 -1 -8 3
-5 6 6 6 11 1 17 -2 13 -5z m682 -290 c23 -58 41 -109 41 -113 0 -4 5 -12 11
-18 8 -8 23 -6 56 8 l44 19 15 -36 c8 -20 13 -41 11 -48 -5 -11 -295 -123
-300 -115 -8 10 -27 61 -27 70 0 5 20 18 45 29 25 11 45 21 45 24 0 2 -20 56
-45 120 -25 64 -45 121 -45 126 0 8 72 38 96 39 7 1 30 -47 53 -105z m-1383
54 c45 -12 46 -14 40 -45 -20 -111 -23 -99 27 -112 25 -6 50 -11 55 -11 5 0
16 27 25 60 10 33 22 60 27 60 29 0 100 -26 100 -36 0 -15 -86 -333 -91 -339
-8 -8 -101 20 -106 31 -3 7 2 37 11 68 9 30 16 57 16 60 0 7 -101 37 -110 31
-3 -2 -12 -28 -19 -57 -17 -79 -18 -80 -79 -62 -29 9 -52 19 -52 22 0 4 15 63
34 132 19 69 39 144 45 168 13 47 13 47 77 30z m1098 -213 c14 -88 26 -167 26
-176 0 -11 -33 -20 -146 -38 -161 -26 -164 -26 -164 35 l0 31 86 13 c56 8 87
17 91 27 11 29 -12 35 -91 22 -42 -6 -78 -10 -81 -8 -2 2 -5 22 -7 44 l-3 39
72 12 c94 16 103 22 85 51 -6 10 -27 9 -97 -3 -99 -17 -105 -15 -105 44 0 24
5 32 18 33 9 0 76 11 147 23 72 13 133 20 136 17 4 -3 18 -78 33 -166z m-504
103 c117 -64 121 -257 7 -322 -23 -13 -57 -27 -75 -31 -47 -10 -124 11 -163
45 l-34 29 38 38 c23 23 40 34 45 27 13 -18 56 -44 75 -44 32 0 77 54 77 93 0
74 -62 107 -133 71 -31 -17 -31 -17 -59 17 -15 18 -28 36 -28 40 0 11 52 42
95 55 48 16 107 9 155 -18z"/>
<path d="M2299 3410 c-45 -8 -95 -28 -87 -35 2 -2 22 2 43 10 53 19 147 19
193 -1 20 -8 58 -33 84 -55 26 -22 45 -33 42 -25 -10 26 -101 87 -151 102 -50
15 -56 15 -124 4z"/>
<path d="M2144 3327 c-45 -46 -84 -115 -83 -144 0 -14 2 -15 6 -3 17 48 50
101 91 143 25 26 42 47 37 47 -6 0 -29 -20 -51 -43z"/>
<path d="M2275 3145 c-55 -54 -18 -155 57 -155 81 1 117 93 59 151 -38 37 -82
39 -116 4z"/>
<path d="M2051 3108 c-3 -153 113 -310 344 -465 133 -89 176 -115 182 -110 3
3 -8 13 -24 23 -349 216 -476 355 -493 539 l-7 70 -2 -57z"/>
<path d="M2778 3122 c-102 -43 -119 -56 -98 -76 25 -23 203 -87 213 -77 19 19
-3 39 -68 61 -36 12 -64 27 -63 32 2 6 32 21 67 33 72 27 75 29 68 50 -9 21
-19 19 -119 -23z"/>
<path d="M2729 2288 c-26 -36 -41 -158 -20 -158 35 0 171 91 171 114 0 7 -15
26 -33 44 -45 44 -87 44 -118 0z"/>
<path d="M2954 2197 c-6 -28 23 -104 49 -126 9 -7 24 -10 33 -7 22 9 14 88
-13 125 -27 36 -60 40 -69 8z"/>
<path d="M3219 2125 c16 -47 27 -54 51 -32 8 6 6 2 -3 -9 -16 -19 -17 -33 -9
-130 5 -60 7 -123 5 -140 -8 -51 11 -47 67 12 52 55 53 56 47 109 -7 69 -39
129 -99 188 -64 62 -81 63 -59 2z"/>
<path d="M3022 2021 c-34 -21 -32 -135 2 -169 14 -14 17 -14 36 3 25 23 28
119 4 153 -17 24 -22 26 -42 13z"/>
<path d="M2978 1780 c-48 -37 -75 -129 -46 -158 21 -21 45 -13 77 23 76 87 51
200 -31 135z"/>
<path d="M720 3603 c0 -5 15 -24 34 -42 l34 -33 16 30 c9 17 12 33 8 36 -18
11 -92 18 -92 9z"/>
<path d="M512 3198 c-11 -13 -23 -35 -27 -49 -6 -24 -3 -26 68 -47 100 -29
105 -29 113 13 15 82 -97 143 -154 83z"/>
<path d="M417 2583 c-4 -3 -7 -24 -7 -45 0 -39 0 -39 38 -36 32 3 37 7 40 31
2 16 -2 35 -9 43 -12 14 -50 19 -62 7z"/>
<path d="M543 2083 c-34 -23 -28 -33 18 -33 33 0 40 3 35 16 -3 9 -6 20 -6 25
0 14 -22 10 -47 -8z"/>
<path d="M4432 1776 c-10 -22 -8 -24 31 -29 23 -3 43 -4 45 -2 5 4 -49 54 -59
55 -3 0 -11 -11 -17 -24z"/>
<path d="M713 1693 c-58 -11 -92 -84 -60 -127 13 -17 17 -16 85 18 40 20 72
38 72 41 0 18 -27 55 -47 64 -13 6 -25 10 -26 10 -1 -1 -12 -4 -24 -6z"/>
<path d="M972 1229 c-25 -43 -23 -45 31 -21 l38 17 -23 22 -23 22 -23 -40z"/>
<path d="M1267 892 c-22 -25 -21 -34 6 -60 29 -27 34 -27 58 1 25 30 24 42 -6
61 -31 20 -38 20 -58 -2z"/>
</g>
</svg>
